<svg xmlns="http://www.w3.org/2000/svg" version="1.0" preserveAspectRatio="xMidYMid meet" viewBox="279 219.05 451.5 585.42">

<g transform="translate(0.000000,1024.000000) scale(0.100000,-0.100000)" fill="#000000" stroke="none">
<path d="M4104 8019 c-181 -115 -366 -319 -432 -476 -33 -78 -71 -245 -84 -371 l-12 -114 -70 -107 c-221 -335 -326 -700 -326 -1127 l0 -165 -66 -75 c-36 -42 -96 -121 -132 -177 -67 -103 -192 -338 -192 -362 0 -15 161 -142 280 -222 101 -67 252 -157 380 -226 58 -31 115 -67 127 -79 24 -26 491 -736 516 -783 8 -17 68 -114 133 -215 65 -102 226 -365 359 -585 403 -667 434 -716 471 -731 23 -10 41 -11 57 -5 34 13 98 96 187 242 41 68 177 277 301 464 124 187 301 457 394 600 92 143 218 337 280 430 61 94 131 202 155 242 38 61 52 75 95 94 70 31 349 312 480 484 54 72 134 176 177 232 115 149 123 171 123 323 l0 125 -55 90 c-30 50 -87 125 -127 167 l-73 77 0 89 c0 272 -94 641 -232 915 -304 599 -855 980 -1517 1047 -196 19 -389 6 -591 -41 -163 -38 -146 -41 -257 47 -54 42 -130 110 -170 151 -84 85 -103 90 -179 42z m107 -155 c104 -108 526 -411 545 -391 3 3 0 40 -7 82 -7 47 -8 80 -3 85 6 6 55 15 111 22 l102 12 113 -105 c448 -412 752 -711 1302 -1279 649 -673 727 -757 770 -835 46 -84 55 -148 32 -227 -16 -55 -52 -109 -253 -373 -158 -207 -349 -407 -430 -449 -62 -31 -180 -49 -293 -43 -128 6 -550 93 -842 173 -108 30 -205 54 -214 54 -14 0 -14 -4 3 -33 11 -18 70 -102 132 -186 61 -85 114 -165 117 -178 12 -48 -121 -203 -244 -283 -197 -129 -418 -179 -803 -180 l-96 0 -272 413 c-149 228 -284 432 -301 455 -21 29 -51 52 -102 78 -182 91 -509 293 -612 377 l-29 23 58 105 c111 200 236 361 351 448 83 62 221 131 324 162 41 12 76 23 78 24 1 1 -11 61 -28 133 -16 71 -30 146 -30 164 0 46 45 90 92 90 20 0 115 -33 224 -77 306 -126 328 -134 401 -146 53 -9 100 -8 204 1 74 7 152 13 173 14 l40 1 133 -194 c73 -107 133 -200 133 -206 0 -15 -101 -158 -201 -285 -92 -118 -103 -141 -84 -177 8 -15 39 -80 68 -144 69 -149 128 -237 165 -245 15 -3 70 -17 122 -31 372 -97 547 -137 775 -178 221 -40 273 -47 345 -42 92 5 178 33 220 70 34 30 224 253 341 402 193 243 209 270 209 352 0 71 -30 120 -148 240 -59 60 -300 309 -537 553 -486 503 -781 800 -1036 1040 -342 323 -385 360 -413 360 -22 0 -25 -3 -16 -17 7 -15 179 -1008 197 -1144 l5 -37 -92 -7 c-51 -4 -156 -4 -235 0 -96 5 -145 4 -149 -4 -4 -5 14 -40 39 -76 25 -37 45 -70 45 -75 0 -24 -50 -34 -165 -35 -100 0 -132 4 -190 23 -270 90 -479 353 -575 727 -57 219 -66 367 -31 509 28 115 68 199 140 289 63 79 243 237 271 237 9 0 32 -16 51 -36z m1769 -2089 c432 -320 491 -367 477 -381 -5 -5 -114 -11 -242 -13 l-233 -3 -13 23 c-14 27 -169 466 -169 480 0 22 35 1 180 -106z"/>
<path d="M3840 6028 c-1 -40 145 -635 159 -650 9 -9 103 -66 210 -127 184 -105 197 -111 251 -111 107 0 217 75 263 179 26 60 29 198 5 253 -21 46 -91 123 -142 155 -37 24 -718 313 -737 313 -5 0 -9 -6 -9 -12z"/>
</g>
</svg>