<svg width="38" height="38" viewBox="0 0 1352 1234" fill="none" xmlns="http://www.w3.org/2000/svg">
    <defs>
        <style>
            .proto-icon-shape {
                /* Цвет по умолчанию (для светлой темы или если prefers-color-scheme не поддерживается) */
                fill: black;
                transition: fill 0.2s ease-in-out;
            }

            /* Стили для темной темы */
            @media (prefers-color-scheme: dark) {
                .proto-icon-shape {
                    fill: white; /* Белый цвет для темной темы */
                }
            }
        </style>
    </defs>
    <path class="proto-icon-shape" fill-rule="evenodd" clip-rule="evenodd" d="M432.923 0.658243C431.178 1.12524 429.034 5.05625 429.033 7.79325C429.033 8.73025 427.643 12.4213 425.945 15.9963C424.248 19.5713 422.055 24.5213 421.073 26.9963C420.09 29.4713 417.274 36.4463 414.814 42.4963C399.797 79.4263 391.558 113.09 385.935 160.496C382.628 188.379 386.365 240.404 394.564 280.611C395.922 287.274 397.034 293.435 397.034 294.303C397.034 296.173 389.358 312.512 387.652 314.274C387.001 314.946 385.382 317.071 384.053 318.996C356.57 358.832 300.282 365.627 252.034 334.934C238.388 326.253 228.393 327.759 228.685 338.451C229.521 369.003 244.6 410.5 262.669 431.974C264.357 433.98 264.966 435.422 264.3 435.836C262.856 436.733 253.344 450.075 248.717 457.694C244.651 464.389 237.086 480.25 232.595 491.496C231.058 495.346 229.431 499.396 228.979 500.496C225.482 509.013 219.005 531.124 210.522 563.496C206.343 579.446 202.31 594.296 201.56 596.496C200.809 598.696 198.973 604.546 197.479 609.496C193.907 621.331 189.848 633.516 185.987 643.996C184.265 648.671 182.5 653.621 182.066 654.996C176.453 672.761 156.672 709.586 145.839 722.437C143.11 725.674 131.365 737.595 127.937 740.608C122.381 745.491 104.756 755.565 95.5343 759.129C90.5503 761.055 84.9913 761.985 78.4373 761.99C69.9853 761.997 64.1033 766.227 64.0183 772.36C63.9073 780.427 69.9692 785.035 87.1312 789.93C95.0532 792.189 104.347 795.221 107.784 796.667L114.034 799.296V804.611C114.034 836.9 92.1513 879.317 63.5353 902.496C61.4983 904.146 59.1333 906.171 58.2783 906.996C50.6213 914.388 14.1333 934.996 8.70226 934.996C7.87926 934.996 5.59226 936.563 3.62026 938.478C-3.96874 945.848 0.0772495 953.97 18.5712 968.496C20.6722 970.146 23.1393 972.212 24.0543 973.087C26.5803 975.505 36.5993 981.996 37.8043 981.996C38.3893 981.996 47.8653 990.883 58.8623 1001.75C80.5513 1023.17 92.1302 1033.98 101.431 1041.5C103.473 1043.15 106.582 1045.78 108.339 1047.35C110.096 1048.92 113.094 1051.39 115.001 1052.85C116.908 1054.31 119.225 1056.17 120.15 1057C124.648 1061.01 127.129 1063.02 134.362 1068.53C138.667 1071.81 144.038 1075.73 146.297 1077.24C148.555 1078.74 150.658 1080.35 150.969 1080.8C151.28 1081.26 153.774 1083.15 156.511 1085.02C159.249 1086.88 162.174 1088.96 163.011 1089.65C171.984 1096.96 231.992 1133.77 249.034 1142.42C265.271 1150.65 286.097 1161 286.445 1161C286.68 1161 292.1 1163.47 298.49 1166.5C304.879 1169.52 310.503 1172 310.989 1172C311.475 1172 313.146 1172.65 314.703 1173.44C317.709 1174.97 333.537 1181.31 343.534 1184.99C346.834 1186.2 350.434 1187.55 351.534 1187.99C352.634 1188.43 355.109 1189.34 357.034 1190C358.959 1190.66 361.434 1191.58 362.534 1192.06C376.721 1198.15 436.031 1214.41 464.034 1219.89C564.364 1239.54 660.558 1238.16 746.034 1215.86C763.998 1211.17 791.098 1202.43 801.534 1197.95C802.634 1197.48 807.436 1195.52 812.204 1193.58C835.05 1184.33 880.614 1159.41 891.034 1150.47C892.409 1149.29 895.671 1147.02 898.282 1145.41C900.894 1143.81 903.031 1142.2 903.032 1141.83C903.033 1141.46 904.531 1140.23 906.36 1139.1C908.189 1137.97 910.841 1136.02 912.254 1134.77C913.666 1133.52 916.743 1130.92 919.091 1129C921.439 1127.07 924.975 1123.73 926.947 1121.57C935.126 1112.62 943.355 1105.1 947.956 1102.38C949.649 1101.38 951.034 1100.25 951.034 1099.87C951.034 1099.49 953.847 1097.35 957.284 1095.12C966.581 1089.09 967.158 1088.49 967.726 1084.26C968.588 1077.83 962.204 1072.03 951.034 1069.08C929.645 1063.43 892.646 1044.49 883.534 1034.52C882.984 1033.92 880.965 1032.32 879.048 1030.97C877.13 1029.63 874.835 1027.84 873.948 1027.01C873.061 1026.18 871.479 1024.78 870.434 1023.89C862.333 1017.06 844.698 994.843 838.367 983.496C823.031 956.009 814.364 926.543 816.66 909.694L817.534 903.28L838.034 907.993C849.309 910.585 868.884 915.053 881.534 917.921C894.184 920.789 907.234 923.764 910.534 924.533C913.834 925.302 923.734 927.551 932.534 929.529C941.334 931.508 952.134 933.967 956.534 934.994C960.934 936.021 973.759 938.946 985.034 941.494C1025.48 950.633 1049.64 956.124 1055.53 957.524C1114.05 971.406 1113.22 971.402 1145.53 957.957C1206.5 932.594 1273.49 896.663 1302.03 874.025C1305.39 871.36 1311.57 866.733 1316.94 862.864C1319.36 861.117 1322.1 858.97 1323.04 858.092C1323.97 857.214 1327.57 854.021 1331.04 850.996C1347.23 836.885 1355.38 823.8 1350.03 820.496C1349.48 820.156 1349.03 818.756 1349.03 817.384C1349.03 816.012 1347.91 813.234 1346.53 811.211C1345.16 809.187 1344.03 807.242 1344.03 806.889C1344.03 806.095 1318.06 764.69 1317.13 763.996C1316.76 763.721 1314.26 760.121 1311.58 755.996C1308.91 751.871 1306.4 748.271 1306.01 747.996C1305.62 747.721 1303.64 745.021 1301.62 741.996C1296.44 734.279 1291.79 727.595 1289.29 724.304C1288.12 722.76 1284.87 718.346 1282.08 714.496C1279.28 710.646 1276.18 706.596 1275.19 705.496C1274.2 704.396 1272.54 702.034 1271.49 700.246C1270.45 698.459 1269.31 696.996 1268.95 696.996C1268.59 696.996 1267.1 695.186 1265.64 692.973C1264.17 690.761 1262.34 688.173 1261.57 687.223C1260.79 686.273 1258.53 683.471 1256.53 680.996C1254.54 678.521 1251.92 675.321 1250.72 673.884C1249.52 672.447 1247.18 669.604 1245.53 667.565C1243.88 665.527 1241.63 662.845 1240.53 661.607C1239.43 660.368 1237.41 657.843 1236.03 655.996C1234.66 654.149 1232.63 651.624 1231.53 650.385C1230.43 649.147 1228.18 646.464 1226.53 644.424C1222.69 639.669 1218.45 634.767 1214.03 629.979C1212.11 627.889 1208.51 623.804 1206.03 620.9C1203.56 617.996 1200.41 614.407 1199.03 612.925C1197.66 611.443 1194.51 607.905 1192.03 605.062C1187.48 599.829 1186.02 598.25 1164.53 575.353C1151.06 560.988 1090.05 500.057 1076.06 486.996C1062.8 474.611 1056.29 468.534 1046.03 458.996C1041.01 454.321 1034.26 448.021 1031.04 444.996C1025.87 440.144 1015.06 430.305 1008.51 424.496C1007.27 423.396 1004.6 421.146 1002.57 419.496C1000.55 417.846 997.874 415.596 996.624 414.496C995.374 413.396 992.674 411.146 990.624 409.496C988.574 407.846 985.886 405.596 984.651 404.496C983.416 403.396 980.013 400.471 977.089 397.996C974.164 395.521 970.752 392.596 969.506 391.496C964.781 387.327 961.249 384.337 952.034 376.707C946.809 372.381 941.359 367.864 939.922 366.669C938.485 365.474 935.61 363.146 933.532 361.496C931.454 359.846 929.023 357.815 928.13 356.982C927.237 356.15 924.938 354.372 923.02 353.031C921.103 351.69 919.261 350.199 918.927 349.717C918.594 349.236 917.174 348.089 915.773 347.169C912.59 345.078 898.224 334.176 895.534 331.809C892.992 329.573 877.818 318.196 873.519 315.303C871.726 314.097 869.018 311.959 867.501 310.553C865.983 309.147 864.4 307.996 863.983 307.996C863.565 307.996 861.268 306.408 858.879 304.468C833.913 284.196 829.362 278.348 830.32 267.774C832.543 243.261 862.792 222.328 891.395 225.508C904.204 226.932 918.493 230.811 920.183 233.322C921.795 235.718 933.034 230.458 933.034 227.308C933.034 226.586 933.484 225.996 934.034 225.996C938.425 225.996 929.108 208.711 919.291 198.643C903.583 182.533 882.936 177.29 839.081 178.273C808.606 178.956 790.264 183.785 767.4 197.146C759.016 202.046 759.516 203.265 760.885 181.255C765.121 113.158 765.366 116.14 755.134 111.111C742.986 105.14 716.568 131.035 699.396 165.746C697.968 168.634 696.692 170.996 696.562 170.996C696.136 170.996 688.034 159.196 688.034 158.577C688.034 158.247 685.634 154.268 682.7 149.736C679.767 145.204 674.817 137.563 671.7 132.756C668.584 127.949 666.034 123.782 666.034 123.496C666.034 123.21 663.484 119.043 660.368 114.236C657.252 109.429 652.189 101.53 649.118 96.6833C646.047 91.8363 641.276 84.4113 638.516 80.1833C635.756 75.9553 632.845 71.2153 632.045 69.6493C626.832 59.4343 614.888 59.7233 609.439 70.1963C606.283 76.2623 610.299 173.332 614.664 196.496L615.229 199.496L613.223 197.496C612.119 196.396 606.787 190.269 601.375 183.881C595.962 177.492 585.449 165.342 578.013 156.881C570.576 148.419 558.426 134.321 551.013 125.552C537.484 109.549 497.098 63.2603 474.583 37.9523C467.956 30.5023 458.174 19.2022 452.846 12.8392C442.344 0.299243 439.888 -1.20276 432.923 0.658243ZM447.873 30.4423C451.828 35.0883 462.549 47.3503 471.697 57.6923C524.615 117.52 523.507 115.805 539.056 161.996C546.522 184.173 572.666 277.698 571.676 278.687C570.024 280.339 545.16 251.723 539.852 242.06C536.075 235.183 530.049 233.132 528.653 238.246C523.04 258.808 532.647 300.385 550.751 333.876L555.281 342.256L545.019 336.89C539.375 333.939 533.584 330.28 532.149 328.76C526.163 322.417 519.601 325.283 520.679 333.77C524.15 361.117 536.154 396.1 549.816 418.686L554.77 426.875L536.743 413.248C511.478 394.15 479.745 364.743 459.914 342.05C441.813 321.336 438.372 317.147 426.894 301.85C407.359 275.816 407.907 277.436 403.125 231.496C395.832 161.432 406.747 96.4763 437.363 27.7463C440.497 20.7103 439.331 20.4113 447.873 30.4423ZM636.002 115.256C636.019 115.674 638.434 119.724 641.368 124.256C644.301 128.788 649.251 136.429 652.368 141.236C655.484 146.043 658.034 150.249 658.034 150.582C658.034 150.914 660.509 154.78 663.534 159.171C666.559 163.563 669.034 167.447 669.034 167.804C669.034 168.435 675.148 178.008 685.784 194.031C688.672 198.38 691.034 202.181 691.034 202.477C691.034 202.773 693.509 206.836 696.534 211.506C699.559 216.175 704.509 223.817 707.534 228.486C710.559 233.156 713.034 237.249 713.034 237.582C713.034 237.914 715.509 241.78 718.534 246.171C721.559 250.563 724.034 254.447 724.034 254.804C724.034 255.435 730.148 265.008 740.784 281.031C743.672 285.38 746.034 289.181 746.034 289.477C746.034 289.981 747.796 292.759 762.368 315.236C765.484 320.043 768.034 324.21 768.034 324.496C768.034 324.782 770.582 328.949 773.697 333.756C780.82 344.75 789.487 358.314 794.034 365.582C811.498 393.498 822.491 375.688 821.949 320.359C821.668 291.761 821.658 291.775 833.136 304.701C839.435 311.796 860.937 330.607 880.534 346.168C886.034 350.536 891.434 354.87 892.534 355.8C893.634 356.73 897.453 359.662 901.021 362.317C904.588 364.971 907.738 367.469 908.021 367.868C908.303 368.266 910.103 369.69 912.02 371.031C913.938 372.372 916.234 374.15 917.122 374.982C919.111 376.846 923.65 380.624 928.146 384.16C930.01 385.625 932.514 387.65 933.712 388.66C934.909 389.67 937.568 391.846 939.62 393.496C941.672 395.146 944.425 397.467 945.739 398.653C947.052 399.84 949.984 402.315 952.254 404.153C954.524 405.992 957.091 408.189 957.958 409.036C958.825 409.883 962.459 413.015 966.034 415.996C969.609 418.977 973.271 422.109 974.171 422.956C975.072 423.803 977.506 425.846 979.58 427.496C981.654 429.146 984.356 431.396 985.584 432.496C986.812 433.596 989.472 435.846 991.494 437.496C997.857 442.687 1010.18 453.708 1020 462.996C1023.19 466.021 1029.93 472.321 1034.98 476.996C1051.2 492.036 1055.72 496.272 1068.59 508.496C1084.43 523.526 1131.3 570.358 1144.3 584.143C1149.67 589.837 1157.55 598.175 1161.8 602.672C1166.05 607.169 1171.56 613.216 1174.03 616.109C1176.51 619.003 1180.33 623.269 1182.53 625.59C1184.73 627.911 1187.88 631.476 1189.53 633.512C1191.18 635.547 1193.43 638.215 1194.53 639.44C1195.63 640.665 1198.56 643.919 1201.03 646.67C1203.51 649.422 1206.88 653.351 1208.53 655.403C1210.18 657.455 1212.43 660.147 1213.53 661.385C1214.63 662.624 1216.66 665.149 1218.03 666.996C1219.41 668.843 1221.43 671.368 1222.53 672.607C1223.63 673.845 1225.88 676.536 1227.53 678.586C1229.18 680.636 1231.43 683.331 1232.53 684.576C1233.63 685.82 1236.33 689.192 1238.53 692.069C1240.73 694.946 1243.21 698.027 1244.03 698.915C1244.86 699.802 1246.4 701.872 1247.45 703.513C1248.5 705.153 1250.18 707.396 1251.17 708.496C1252.16 709.596 1256.62 715.446 1261.08 721.496C1265.53 727.546 1270.14 733.767 1271.31 735.321C1274.65 739.738 1279.74 746.983 1283.72 752.996C1285.72 756.021 1287.72 758.737 1288.16 759.031C1288.6 759.325 1290.77 762.25 1292.98 765.531C1295.19 768.812 1299.68 775.321 1302.95 779.996C1306.22 784.671 1310.56 790.971 1312.59 793.996C1314.63 797.021 1318.39 802.196 1320.95 805.496C1331.99 819.696 1332.57 825.442 1323.64 831.935C1322.55 832.727 1320.94 834.077 1320.06 834.935C1319.19 835.794 1316.68 837.822 1314.5 839.443C1312.32 841.064 1310.31 842.701 1310.03 843.081C1309.76 843.461 1306.33 845.96 1302.42 848.634C1298.5 851.308 1292.75 855.256 1289.64 857.408C1284.83 860.729 1283.11 861.348 1278.25 861.507C1275.11 861.611 1260.61 864.209 1246.03 867.282C1204.54 876.029 1166.3 883.946 1157.37 885.637L1149.2 887.182L1101.87 861.779C1075.84 847.807 1053.86 836.122 1053.03 835.813C1051.94 835.403 1051.02 831.59 1049.67 821.873C1045.64 793.055 1050.79 793.346 988.534 818.413C944.269 836.237 940.408 837.614 938.915 836.118C938.024 835.226 933.031 828.196 927.819 820.496C922.607 812.796 913.911 799.971 908.495 791.996C903.079 784.021 896.92 774.908 894.809 771.746C892.697 768.584 890.534 765.996 890.002 765.996C889.469 765.996 889.034 765.341 889.034 764.541C889.034 759.846 880.458 761.74 869.913 768.764C865.855 771.468 858.709 776.16 854.034 779.192C834.852 791.633 823.994 798.704 814.145 805.173C808.431 808.926 803.388 811.996 802.94 811.996C801.102 811.996 800.87 818.779 802.594 822.125C813.355 843.004 812.464 843.005 846.829 822.045C861.212 813.273 873.849 805.63 874.91 805.062C876.982 803.953 876.376 803.141 895.174 832.223C911.834 857.999 921.164 872.125 922.753 873.981C925.881 877.634 930.68 876.607 951.329 867.866C961.892 863.394 977.959 856.6 987.034 852.766C996.109 848.933 1007.08 844.276 1011.41 842.417C1020.49 838.522 1020.55 838.533 1021.37 844.219C1023.01 855.576 1022.88 855.432 1042.03 865.73C1056.27 873.384 1075.75 883.994 1087.79 890.659C1095.08 894.694 1101.21 897.996 1101.42 897.996C1101.63 897.996 1106.92 900.85 1113.17 904.338C1149.68 924.709 1145.36 923.684 1170.72 918.003C1189.11 913.881 1192.12 913.396 1190.48 914.821C1188.69 916.384 1142.46 936.742 1133.03 940.123C1113.58 947.101 1109.87 948.042 1105.78 947.025C1104 946.58 1099.38 945.508 1095.53 944.644C1088.34 943.031 1060.33 936.684 1021.53 927.883C1009.43 925.138 996.834 922.255 993.534 921.477C990.234 920.699 977.634 917.824 965.534 915.088C953.434 912.353 933.409 907.817 921.034 905.008C908.659 902.199 888.634 897.658 876.534 894.916C864.434 892.174 852.734 889.499 850.534 888.972C848.334 888.445 835.509 885.522 822.034 882.476C779.055 872.762 757.75 867.913 749.534 865.975C745.134 864.937 739.959 863.839 738.034 863.535C736.109 863.232 728.301 861.858 720.682 860.483C713.064 859.108 700.689 857.319 693.182 856.508C685.676 855.697 673.684 854.375 666.534 853.571C659.384 852.766 644.534 851.399 633.534 850.531C622.534 849.664 605.659 848.04 596.034 846.923C586.409 845.806 575.493 844.625 571.776 844.298C561.881 843.429 562.043 843.755 543.899 787.996C541.661 781.121 538.752 772.312 537.432 768.421C536.113 764.529 535.034 761.094 535.034 760.787C535.034 760.48 537.621 759.226 540.784 758.001C547.215 755.511 567.444 747.378 570.534 746.041C571.634 745.565 574.559 744.274 577.034 743.172C579.509 742.069 590.084 737.572 600.534 733.178C610.984 728.783 625.334 722.445 632.422 719.092C639.511 715.739 645.913 712.996 646.648 712.996C654.602 712.996 658.23 704.802 654.97 694.205C648.762 674.032 644.994 662.221 637.995 640.996C611.328 560.125 603.59 528.404 602.304 494.69L601.74 479.884L604.617 480.606C608.498 481.58 635.835 492.766 649.034 498.781C663.508 505.377 667.269 506.996 668.117 506.996C668.636 506.996 669.843 507.407 670.798 507.91C676.606 510.969 702.733 519.996 705.777 519.996C711.452 519.996 712.257 511.808 707.704 500.398C705.751 495.502 702.995 487.446 701.581 482.496C700.167 477.546 698.595 472.371 698.088 470.996C697.056 468.194 689.216 443.261 683.153 423.496C665.549 366.111 646.056 278.952 640.1 230.996C636.174 199.388 633.09 171.406 632.053 157.996C631.479 150.571 630.34 135.925 629.521 125.449C628.703 114.973 628.034 105.754 628.034 104.962C628.034 103.551 635.938 113.763 636.002 115.256ZM741.715 156.245C740.32 187.345 741.505 223.404 744.058 227.536C747.76 233.525 754.81 233.42 760.946 227.284C783.515 204.715 844.159 191.923 883.534 201.427L891.534 203.358L879.034 204.554C860.189 206.356 844.3 212.677 834.799 222.15C833.845 223.101 832.495 224.243 831.799 224.688C830.644 225.426 826.215 230.362 821.768 235.869C819.186 239.067 813.338 250.998 812.585 254.607L811.936 257.717L802.735 255.811C784.92 252.12 785.034 251.924 785.034 286.385V311.475L780.534 304.767C778.059 301.077 776.034 297.815 776.034 297.518C776.034 297.22 773.484 293.043 770.368 288.236C767.252 283.429 762.189 275.53 759.118 270.683C756.047 265.836 751.172 258.311 748.284 253.961C745.396 249.612 743.034 245.811 743.034 245.515C743.034 245.219 740.559 241.156 737.534 236.486C734.509 231.817 729.559 224.175 726.534 219.506C723.509 214.836 721.034 210.782 721.034 210.496C721.034 210.21 718.537 206.225 715.486 201.64L709.938 193.303L713.976 184.127C721.948 166.012 738.891 137.998 741.878 137.995C742.239 137.995 742.165 146.208 741.715 156.245ZM564.575 164.938C570.098 171.295 581.091 184.371 589.004 193.996C596.917 203.621 606.911 215.38 611.213 220.127C618.267 227.913 619.034 229.156 619.034 232.811C619.034 235.039 620.206 243.08 621.639 250.679C623.072 258.279 624.609 267.646 625.054 271.496C627.601 293.537 646.372 374.202 658.678 415.996C664.294 435.069 672.968 463.102 674.09 465.81C674.618 467.082 674.708 467.923 674.292 467.677C672.056 466.361 631.635 449.35 626.534 447.579L620.534 445.496L620.297 440.996C619.804 431.66 618.039 421.07 612.464 393.996C600.973 338.188 566.68 206.08 552.933 164.659C549.617 154.67 546.687 145.821 546.422 144.996C546.157 144.171 547.873 145.72 550.237 148.438C552.6 151.157 559.053 158.582 564.575 164.938ZM543.294 266.105C553.141 277.826 554.735 279.295 575.591 295.874C576.517 296.61 580.508 311.926 592.038 358.996C598.253 384.368 608.022 433.383 608.031 439.246C608.034 440.754 607.02 440.996 600.716 440.996C596.69 440.996 591.055 441.691 588.193 442.541C582.838 444.132 581.034 443.876 581.034 441.528C581.034 440.786 577.24 435.634 572.604 430.079C552.836 406.398 541.497 382.39 533.008 346.246C532.071 342.256 531.516 342.211 540.806 346.88C570.32 361.716 584.209 359.066 569.622 341.382C559.188 328.732 545.427 298.618 539.984 276.521C537.461 266.28 536.177 257.653 537.388 259.079C537.582 259.309 540.24 262.47 543.294 266.105ZM808.034 270.047C808.034 270.44 807.101 271.007 805.96 271.305C804.819 271.603 803.641 272.781 803.343 273.922C803.045 275.063 802.403 275.996 801.917 275.996C801.425 275.996 801.034 289.608 801.034 306.719C801.034 333.682 800.859 337.191 799.6 335.394C798.464 333.772 798.018 326.495 797.451 300.315L796.735 267.282L802.385 268.306C805.492 268.87 808.034 269.653 808.034 270.047ZM421.987 317.427C449.935 358.049 524.336 427.089 562.672 447.976C566.996 450.332 570.713 452.417 570.933 452.61C571.152 452.802 570.392 454.88 569.245 457.228C564.141 467.673 562.409 481.297 564.071 497.929C565.537 512.591 571.518 551.566 573.898 561.969C575.235 567.811 575.521 567.879 567.52 560.447C563.7 556.899 560.244 553.996 559.839 553.996C556.324 553.996 534.201 527.943 507.617 492.496C476.898 451.535 461.19 424.294 438.997 373.496C432.445 358.498 417.076 312.996 418.563 312.996C418.769 312.996 420.31 314.99 421.987 317.427ZM420.973 369.996C435.512 406.435 453.952 441.846 473.567 470.996C485.627 488.917 486.291 489.857 495.319 501.792C502.217 510.91 502.744 511.898 499.945 510.45C493.909 507.329 480.474 503.913 469.964 502.828L459.394 501.736L456.783 497.116C455.347 494.575 450.428 486.779 445.853 479.792C441.278 472.805 433.484 460.758 428.534 453.021C423.584 445.284 416.648 434.576 413.12 429.225C409.592 423.874 404.382 415.67 401.542 410.994C394.649 399.646 387.783 390.116 386.453 390.05C385.859 390.02 383.159 388.873 380.453 387.5C375.511 384.993 371.034 384.226 371.034 385.888C371.034 386.378 369.963 387.048 368.653 387.377C367.273 387.723 365.636 389.345 364.758 391.235C363.926 393.029 361.572 398.096 359.527 402.496C357.482 406.896 350.416 422.646 343.825 437.496C337.234 452.346 330.8 466.746 329.529 469.496C323.17 483.244 320.27 489.663 308.515 515.996C301.518 531.671 294.31 547.711 292.496 551.641C286.061 565.584 283.034 572.851 283.034 574.355C283.034 575.192 282.584 576.156 282.034 576.496C278.148 578.898 282.496 586.187 292.593 594.196C296.961 597.661 301.209 601.233 302.034 602.135C302.859 603.036 309.091 608.211 315.884 613.635C328.61 623.797 343.987 636.274 364.667 653.219C386.933 671.462 390.586 674.497 392.893 676.663C402.031 685.242 406.53 688.292 418.34 693.914C442.308 705.324 476.268 706.145 498.809 695.859C502.26 694.284 505.341 692.996 505.656 692.996C507.558 692.996 523.662 681.174 529.652 675.38C554.059 651.776 565.467 615.616 558.698 583.318C557.151 575.939 556.161 575.485 571.638 589.249L582.605 599.002L586.464 612.749C591.189 629.582 599.789 655.605 605.68 670.894C608.096 677.163 609.951 682.352 609.803 682.427C609.181 682.74 603.378 685.33 601.534 686.118C600.434 686.588 581.534 694.355 559.534 703.378C483.548 734.544 488.46 732.21 487.442 737.633C486.721 741.477 485.297 736.854 512.077 817.59C520.303 842.392 527.034 863.421 527.034 864.321C527.034 866.862 531.117 867.333 544.872 866.376C563.184 865.103 572.301 865.381 592.534 867.832C602.434 869.03 623.134 870.91 638.534 872.008C653.934 873.107 671.034 874.445 676.534 874.984C682.034 875.522 691.034 876.026 696.534 876.104C715.611 876.377 741.563 881.372 779.3 892.037C798.74 897.53 797.97 896.677 797.307 911.996C796.286 935.609 800.364 953.508 812.806 980.024C816.999 988.959 826.097 1004.89 828.308 1007.17C829.019 1007.9 830.704 1010.07 832.053 1011.98C833.403 1013.9 835.188 1016.2 836.02 1017.1C836.853 1018 839.559 1021.07 842.034 1023.94C848.099 1030.97 858.938 1041.82 863.569 1045.5C865.647 1047.15 868.514 1049.43 869.94 1050.57C871.367 1051.71 874.784 1054.16 877.534 1056.01C880.284 1057.85 882.761 1059.69 883.038 1060.09C885.361 1063.44 920.605 1082.12 930.034 1085C932.509 1085.75 934.717 1086.5 934.941 1086.67C935.406 1087.02 932.281 1089.93 926.012 1095C923.628 1096.92 919.111 1100.97 915.972 1104C912.834 1107.02 908.81 1110.62 907.031 1112C905.252 1113.37 902.612 1115.49 901.165 1116.71C870.835 1142.21 822.188 1168.66 777.034 1184.19C659.688 1224.57 499.383 1220.61 376.537 1174.32C374.339 1173.49 369.389 1171.78 365.537 1170.51C361.685 1169.25 356.509 1167.44 354.034 1166.5C348.864 1164.54 330.51 1157.23 327.534 1155.95C326.434 1155.47 322.699 1153.93 319.233 1152.51C305.372 1146.83 275.287 1132.33 256.851 1122.43C239.593 1113.16 197.294 1087.92 190.538 1082.85C186.847 1080.08 183.045 1077.47 168.034 1067.42C165.009 1065.39 162.309 1063.42 162.034 1063.05C161.759 1062.67 159.37 1060.82 156.725 1058.93C148.955 1053.38 138.793 1045.59 135.957 1043C135.054 1042.17 132.61 1040.15 130.526 1038.5C125.026 1034.14 119.343 1029.44 117.681 1027.86C116.887 1027.11 114.567 1025.15 112.527 1023.5C104.364 1016.9 88.9833 1002.64 72.8703 986.746C65.7613 979.733 59.7342 973.996 59.4762 973.996C57.9202 973.996 48.4883 965.135 48.8593 964.022C49.1653 963.103 48.7683 962.884 47.6053 963.33C46.2253 963.86 46.0193 963.559 46.5163 961.74C47.0573 959.763 46.9963 959.709 46.0103 961.286C44.9643 962.957 44.6693 962.891 41.5713 960.286C33.4263 953.439 31.5543 951.996 30.8193 951.996C27.9343 951.996 31.2153 948.888 37.6803 945.496C46.6363 940.797 65.8703 928.323 69.2903 924.996C70.1383 924.171 72.5163 922.146 74.5743 920.496C110.519 891.679 130.994 852.539 132.734 809.313L133.305 795.13L130.17 790.866C128.445 788.521 127.034 786.006 127.034 785.278C127.034 784.549 125.909 783.441 124.534 782.814C123.159 782.188 122.034 781.39 122.034 781.043C122.034 780.695 119.559 779.569 116.534 778.541C109.548 776.166 109.517 776.249 119.192 771.496C123.671 769.296 127.83 767.031 128.434 766.463C129.039 765.895 131.109 764.344 133.034 763.015C143.426 755.846 163.09 735.523 169.751 725.067C171.703 722.003 173.607 719.271 173.982 718.996C176.772 716.953 190 691.745 196.022 676.996C198.38 671.221 200.87 665.146 201.556 663.496C209.215 645.054 220.942 607.653 231.03 569.496C245.28 515.596 254.247 489.603 266.663 466.2C273.255 453.774 276.929 449.588 281.822 448.929C292.349 447.511 295.142 436.949 287.118 428.906C276.971 418.737 260.341 389.693 254.136 371.305C249.876 358.682 249.858 358.733 257.268 362.263C295.973 380.698 349.218 378.659 375.206 357.747C383.609 350.986 398.311 335.627 402.542 329.192L405.372 324.887L411.077 342.192C414.215 351.709 418.668 364.221 420.973 369.996ZM386.917 427.246C391.491 434.534 399.445 447.021 404.593 454.996C409.741 462.971 417.63 475.315 422.124 482.426C426.619 489.538 431.795 497.442 433.626 499.992L436.957 504.627L430.003 506.867C385.047 521.346 355.987 565.994 360.955 612.952C361.505 618.153 361.822 622.541 361.66 622.703C361.323 623.04 350.014 614.05 328.063 595.996C319.704 589.121 311.122 582.146 308.991 580.496C303.796 576.474 303.236 579.058 314.73 553.996C316.117 550.971 322.878 535.896 329.754 520.496C336.629 505.096 343.593 489.571 345.229 485.996C346.865 482.421 349.013 477.696 350.004 475.496C350.994 473.296 353.356 468.121 355.252 463.996C357.148 459.871 362.937 446.937 368.117 435.254C379.273 410.09 376.808 411.14 386.917 427.246ZM611.82 454.525C614.652 455.366 621.371 458.231 626.752 460.891C632.132 463.551 646.311 469.933 658.26 475.074C679.527 484.224 684.697 487.666 681.688 490.675C681.22 491.143 642.917 473.844 635.809 469.955C634.861 469.436 631.261 468.062 627.809 466.902C624.358 465.742 619.666 463.92 617.382 462.853C596.669 453.173 580.034 464.757 580.034 488.861C580.034 508.068 589.148 557.652 597.337 582.996C598.136 585.471 600.003 591.546 601.486 596.496C604.468 606.457 617.604 647.455 625.035 669.996C633.81 696.613 633.999 697.556 630.784 698.573C629.547 698.964 625.609 700.618 622.034 702.248C618.459 703.879 614.634 705.584 613.534 706.037C612.434 706.49 609.959 707.516 608.034 708.317C606.109 709.117 600.709 711.217 596.034 712.981C587.339 716.264 569.125 723.415 565.534 724.957C564.434 725.429 561.509 726.704 559.034 727.789C556.559 728.875 550.934 731.189 546.534 732.932C542.134 734.675 537.634 736.475 536.534 736.932C535.434 737.389 531.384 739.035 527.534 740.59C523.684 742.145 519.634 744.495 518.534 745.812C517.434 747.129 515.697 749.108 514.674 750.211C510.489 754.722 511.969 762.095 523.06 791.996C524.794 796.671 526.568 801.621 527.003 802.996C527.438 804.371 529.377 809.546 531.313 814.496C541.668 840.981 546.325 854.038 545.655 854.708C545.45 854.914 543.688 855.34 541.74 855.656L538.199 856.231L519.483 799.363C497.801 733.483 499.777 740.843 503.534 739.959C505.184 739.571 512.384 736.766 519.534 733.726C526.684 730.686 543.784 723.614 557.534 718.01C571.284 712.405 584.109 707.131 586.034 706.289C592.604 703.416 595.539 702.2 608.534 696.97C627.639 689.281 627.647 689.264 619.657 670.736C607.773 643.178 590.442 584.324 586.039 556.575C585.435 552.769 584.772 549.381 584.565 549.046C584.358 548.711 583.017 539.9 581.586 529.467C580.154 519.033 578.519 507.796 577.952 504.496C571.113 464.711 583.681 446.169 611.82 454.525ZM878.007 494.688C872.416 498.514 872.551 499.445 882.094 522.784C894.266 552.552 906.208 581.882 912.514 597.496C943.508 674.242 942.223 671.271 946.032 674.994C948.63 677.534 949.906 678.003 954.318 678.044C957.187 678.07 978.434 679.131 1001.53 680.402C1045.38 682.814 1045.84 682.798 1050.28 678.655C1055.08 674.186 1054.19 671.011 1045.66 662.154C1036.33 652.476 1031.14 646.985 1018.03 632.923C1012.26 626.728 1005.51 619.528 1003.03 616.923C1000.56 614.318 993.809 607.118 988.034 600.923C982.259 594.728 975.509 587.528 973.034 584.923C970.559 582.318 963.809 575.116 958.034 568.918C952.259 562.72 944.088 554.015 939.877 549.573C930.25 539.418 925.193 534.029 912.034 519.896C885.177 491.051 884.286 490.391 878.007 494.688ZM961.784 521.685C955.984 523.201 970.034 559.553 980.673 570.559C983.897 573.893 990.359 580.829 995.034 585.971C999.709 591.114 1004 595.81 1004.56 596.409C1023.78 616.835 1034 629.5 1036 632.5C1036.15 632.721 1037 633.5 1037 633.5C1037 633.5 1038 634 1038.27 634.12C1038.77 634.344 1043.05 638.19 1050.55 646.746C1054.97 651.786 1056.41 651.951 1070.88 649.08C1076.19 648.026 1086.83 645.987 1094.53 644.549C1117.5 640.261 1117.03 640.445 1117.03 635.733C1117.03 629.267 1115.67 628.685 1093.33 625.608C1066.99 621.982 1068.38 622.359 1063.82 617.645C1061.61 615.363 1048.72 602.041 1035.17 588.041C1021.62 574.04 1003.96 555.815 995.931 547.541C987.9 539.266 979.35 530.439 976.931 527.924C971.52 522.298 966.831 520.366 961.784 521.685ZM471.653 524.503C557.578 539.078 562.929 659.108 478.587 680.007C459.063 684.845 424.821 678.532 416.595 668.578C416.012 667.872 412.372 664.782 408.506 661.712C383.14 641.565 374.586 601.75 388.723 569.637C402.684 537.925 437.875 518.773 471.653 524.503ZM447.73 543.074C442.386 546.614 438.151 554.21 435.508 564.996L433.916 571.496L426.887 573.256C386.754 583.307 378.223 617.274 413.273 627.463L418.927 629.107L418.366 633.842C414.689 664.89 455.569 683.675 466.961 656.172L468.159 653.279L474.261 655.744C504.258 667.86 526.064 648.19 508.039 625.275L506.009 622.694L510.87 619.42C527.067 608.513 531.607 591.479 521.943 577.874C518.02 572.353 502.465 567.509 490.758 568.163L484.81 568.496L483.093 562.996C476.777 542.758 461.338 534.061 447.73 543.074ZM913.534 545.636C915.734 548.158 920.459 553.278 924.034 557.015C927.609 560.752 935.259 568.877 941.034 575.071C946.809 581.265 953.559 588.464 956.034 591.069C958.509 593.674 965.259 600.873 971.034 607.067C976.809 613.26 982.659 619.525 984.034 620.988C985.409 622.45 992.159 629.674 999.034 637.039C1005.91 644.405 1014.54 653.589 1018.22 657.447C1021.89 661.306 1024.8 664.561 1024.68 664.68C1024.33 665.031 956.927 661.233 956.663 660.847C956.341 660.378 940.533 621.823 933.967 605.496C929.417 594.181 909.775 545.703 908.339 542.246C907.256 539.638 909.684 541.222 913.534 545.636ZM463.701 555.604C465.572 557.589 467.94 560.851 468.962 562.854L470.82 566.496H459.547H448.274L449.132 564.239C453.521 552.695 458.291 549.868 463.701 555.604ZM984.213 553.34C984.939 554.079 996.559 566.093 1010.03 580.039C1023.51 593.984 1040.38 611.4 1047.53 618.741L1060.53 632.088L1070.53 633.562C1076.03 634.373 1080.95 635.165 1081.45 635.323C1081.96 635.481 1077.69 636.54 1071.95 637.677L1061.53 639.744L1056.19 634.12C1048.83 626.385 1044.99 622.224 1026.09 601.496C1017.06 591.596 1005.08 578.546 999.467 572.496C989.254 561.485 982.034 553.163 982.034 552.401C982.034 551.63 982.897 552.002 984.213 553.34ZM470.778 581.39C488.961 590.693 492.432 612.369 477.849 625.544C463.884 638.16 445.499 634.665 435.516 617.496C423.28 596.451 448.914 570.203 470.778 581.39ZM506.033 583.323C517.473 588.85 516.671 598.601 504.034 607.614L499.534 610.824L499.402 604.572C499.24 596.88 496.912 588.568 493.519 583.569L490.96 579.798L496.247 580.474C499.155 580.845 503.558 582.127 506.033 583.323ZM421.839 593.666C420.365 598.579 419.931 602.397 420.193 608.166C420.599 617.098 420.216 617.426 413.519 613.894C408.398 611.192 404.034 607.081 404.034 604.959C404.034 600.864 417.391 588.682 423.687 587.036C423.771 587.014 422.939 589.997 421.839 593.666ZM496.217 632.746C506.678 643.994 497.71 651.644 481.991 644.882L477.077 642.768L482.991 638.946C486.243 636.843 489.66 633.97 490.584 632.56C492.686 629.352 493.073 629.365 496.217 632.746ZM446.388 643.411C449.218 644.187 452.778 645.096 454.298 645.431C457.991 646.246 455.91 650.726 450.033 654.615C442.178 659.813 431.034 650.506 431.034 638.748V635.131L436.138 638.566C438.945 640.455 443.557 642.635 446.388 643.411ZM884.777 781.246C886.364 783.584 891.644 791.346 896.511 798.496C922.051 836.017 926.701 842.884 929.492 847.204C933.176 852.906 940.296 854.91 943.034 851.015C943.757 849.986 1036.03 813.141 1036.04 813.878C1036.06 815.318 1040.08 841.312 1040.62 843.465C1040.97 844.862 1042.21 846.073 1043.66 846.438C1045.01 846.776 1060.6 854.841 1078.32 864.36C1096.04 873.879 1115.93 884.509 1122.53 887.982C1129.13 891.456 1136.96 895.58 1139.93 897.147C1145.71 900.202 1148.94 900.553 1156.03 898.897C1160.49 897.857 1193.56 890.984 1235 882.488C1246.8 880.067 1256.57 878.203 1256.72 878.345C1258.24 879.866 1235.23 890.955 1226.53 892.894C1221.03 894.118 1201.73 898.395 1183.65 902.397L1150.76 909.674L1138.65 903.03C1131.98 899.376 1119.56 892.615 1111.03 888.006C1102.51 883.397 1094.18 878.89 1092.53 877.99C1090.88 877.09 1083.46 873.045 1076.03 869.001C1068.61 864.956 1056.52 858.351 1049.17 854.322C1041.82 850.293 1035.51 846.996 1035.15 846.996C1034.78 846.996 1033.7 843.166 1032.73 838.484C1028.89 819.823 1032.44 819.56 977.927 842.546C953.511 852.841 932.859 861.44 932.034 861.654C931.044 861.911 928.62 859.058 924.907 853.27C921.812 848.444 913.464 835.496 906.355 824.496C899.247 813.496 891.204 801.024 888.482 796.781C880.631 784.541 883.616 783.831 845.641 806.968C824.539 819.825 818.65 823 817.952 821.897C816.586 819.74 816.634 819.681 823.284 815.344C838.819 805.211 853.471 795.703 864.534 788.576C871.134 784.325 877.659 780.005 879.034 778.977C880.409 777.948 881.615 777.082 881.713 777.052C881.812 777.021 883.19 778.908 884.777 781.246Z"/> <!-- Убран fill="black" отсюда -->
</svg>